<svg width="34" height="34" viewBox="0 0 34 34" fill="none" xmlns="http://www.w3.org/2000/svg">
<path fill-rule="evenodd" clip-rule="evenodd" d="M25.186 25.12C25.93 22.859 26.366 20.458 26.469 18H31.949C31.724 21.395 30.37 24.479 28.252 26.887C27.275 26.202 26.252 25.61 25.186 25.12ZM24.4811 27.001C25.2861 27.379 26.0661 27.815 26.8141 28.317C25.4981 29.46 23.9831 30.373 22.3271 31.005C23.1641 29.761 23.8841 28.42 24.4811 27.001ZM9.74506 26.8899C10.3711 28.3999 11.1341 29.8239 12.0321 31.1369C10.2351 30.5029 8.59606 29.5419 7.18506 28.3169C8.00406 27.7679 8.85906 27.2909 9.74506 26.8899ZM9.65396 7.06199C8.80196 6.67099 7.97796 6.20999 7.18896 5.67999C8.54496 4.50299 10.114 3.57099 11.829 2.93799C10.973 4.22399 10.247 5.60399 9.65396 7.06199ZM24.5738 6.95309C24.0088 5.58409 23.3258 4.28609 22.5278 3.06909C24.1048 3.69709 25.5478 4.58409 26.8098 5.67909C26.0908 6.16009 25.3448 6.58609 24.5738 6.95309ZM17.9819 16.0001V10.6281C19.8419 10.5371 21.6569 10.1951 23.3869 9.60107C24.0259 11.6381 24.3989 13.7961 24.4789 16.0001H17.9819ZM17.9819 18H24.4689C24.3699 20.2 23.9829 22.346 23.3299 24.37C21.6189 23.789 19.8239 23.463 17.9819 23.373V18ZM15.9822 18V23.375C14.2412 23.462 12.5432 23.769 10.9192 24.296C10.2802 22.294 9.90122 20.174 9.80322 18H15.9822ZM15.982 15.9999H9.79297C9.87197 13.8279 10.235 11.7009 10.858 9.68994C12.502 10.2289 14.221 10.5369 15.982 10.6259V15.9999ZM31.9492 16H26.4802C26.4002 13.509 25.9872 11.101 25.2632 8.83799C26.3012 8.35499 27.3002 7.78099 28.2532 7.11499C30.3702 9.52199 31.7242 12.606 31.9492 16ZM19.4119 2.21305C20.7679 3.82005 21.8719 5.68805 22.7079 7.72005C21.1929 8.23705 19.6079 8.53905 17.9819 8.62805V2.05005C18.4659 2.08105 18.9419 2.13605 19.4119 2.21305ZM15.9818 2.052V8.626C14.4528 8.54 12.9608 8.268 11.5308 7.803C12.3788 5.719 13.5058 3.804 14.8968 2.165C15.2548 2.115 15.6158 2.076 15.9818 2.052ZM5.7478 7.11401C6.7728 7.83201 7.8498 8.44801 8.9738 8.95201C8.2728 11.182 7.8708 13.551 7.7918 16H2.0498C2.2758 12.605 3.6298 9.52101 5.7478 7.11401ZM2.0498 18H7.8038C7.9038 20.417 8.3288 22.777 9.0498 25.005C7.8978 25.515 6.7978 26.151 5.7478 26.887C3.6298 24.479 2.2758 21.395 2.0498 18ZM15.1089 31.868C13.6619 30.223 12.4919 28.289 11.6089 26.176C13.0149 25.727 14.4789 25.459 15.9819 25.375V31.949C15.6889 31.929 15.3979 31.904 15.1089 31.868ZM17.9819 31.95V25.373C19.5819 25.46 21.1429 25.748 22.6329 26.249C21.7619 28.313 20.6139 30.204 19.2019 31.82C18.7999 31.88 18.3939 31.924 17.9819 31.95ZM29.263 28.754C32.191 25.7 34 21.565 34 17C34 8.647 27.971 1.717 20.031 0.285C20.022 0.284 20.014 0.282 20.005 0.281C19.028 0.107 18.027 0 17 0C7.611 0 0 7.611 0 17C0 21.582 1.821 25.733 4.769 28.79C4.78 28.806 4.782 28.825 4.794 28.841C4.822 28.877 4.862 28.896 4.894 28.927C7.977 32.056 12.26 34 17 34C21.719 34 25.987 32.075 29.068 28.969C29.116 28.927 29.175 28.902 29.216 28.849C29.239 28.82 29.244 28.785 29.263 28.754Z" fill="#F47B20"/>
</svg>
