<svg width="102" height="114" viewBox="0 0 102 114" fill="none" xmlns="http://www.w3.org/2000/svg">
<path d="M23.5523 0C22.0335 0 19.8274 2.00884 18.3196 3.58727C18.2943 3.6137 18.2608 3.64453 18.2359 3.67069C14.7593 8.13056 11.401 14.1805 10.5753 19.9385C9.74667 25.7173 11.2456 31.0822 17.9429 35.2053C17.9614 35.2173 17.9661 35.235 17.9847 35.247C18.0512 35.285 50.375 53.7545 66.1669 62.944C66.708 63.2589 68.1771 63.6948 69.139 63.6948C69.8686 63.6948 70.7551 63.0284 71.6088 61.6092L72.6972 59.8155C72.7191 59.6392 72.776 59.469 72.8647 59.315L84.3765 40.3359C84.4031 40.3069 84.4311 40.279 84.4602 40.2525C84.5089 40.1775 84.565 40.1077 84.6276 40.0439L85.2974 38.876H85.2555C85.7826 37.972 86.0091 37.0702 86.0091 35.9144C86.0091 35.1923 85.1009 34.1068 83.9579 33.4533L25.8965 0.583974C25.1098 0.189461 24.3671 0 23.5523 0ZM86.0509 42.8386L75.9624 59.607L82.8276 63.7366C87.182 57.3074 94.2591 53.213 102 50.9726L86.0509 42.8386ZM46.1154 54.4765V75.9583C46.501 75.8875 46.8996 75.8168 47.2875 75.7914C47.934 75.7487 48.5699 75.7921 49.2131 75.8742C49.7513 75.9436 50.2855 76.0913 50.8038 76.2497V57.1871C49.1732 56.2478 47.7862 55.4366 46.1154 54.4758V54.4765ZM51.8922 76.6257C52.1628 76.7458 52.427 76.898 52.6876 77.0428C52.4243 76.9015 52.1657 76.7405 51.8922 76.6257ZM48.1666 78.3776C47.9284 78.3776 47.6917 78.4016 47.455 78.419C46.0343 78.5218 44.6568 79.0744 43.4363 80.0459C40.1648 82.6499 39.5599 87.5028 42.0967 90.891C44.6336 94.2793 49.2487 94.9133 52.5202 92.3092C55.7789 89.7153 56.404 84.8506 53.9016 81.4641C53.8873 81.4506 53.8734 81.4368 53.8597 81.4227C53.8448 81.3956 53.8308 81.368 53.8178 81.3399C53.8121 81.3266 53.7813 81.3533 53.776 81.3399C53.7617 81.3264 53.7478 81.3126 53.7341 81.2985C52.4654 79.6738 50.7173 78.6995 48.8782 78.4621C48.6444 78.4327 48.4048 78.386 48.1666 78.3793V78.3776ZM47.6224 81.2141C47.9334 81.1927 48.2349 81.2154 48.5433 81.2554C49.6179 81.3944 50.6088 81.9662 51.3899 82.7989C51.5319 82.8728 51.6595 82.9716 51.7667 83.0908C51.7809 83.1043 51.7949 83.1181 51.8085 83.1322C51.8087 83.146 51.8087 83.1598 51.8085 83.1736C51.898 83.2866 51.9687 83.4133 52.0178 83.549C53.3019 85.6752 52.8984 88.4797 50.9294 90.0561C48.8333 91.7345 45.713 91.339 44.1061 89.1801C42.4991 87.0212 42.889 83.9341 44.9852 82.2559C45.7673 81.6296 46.6895 81.2758 47.6224 81.2131V81.2141ZM6.59852 83.2162C5.3988 83.2162 4.31102 84.1621 4.12871 85.3437L0.0263192 111.914C-0.156008 113.096 0.626628 114 1.82635 114H23.2174C24.4171 114 25.5049 113.096 25.6872 111.914L27.4035 100.819L20.1197 103.906C17.7102 104.926 14.905 103.804 13.8823 101.403L13.7149 100.944C12.6922 98.5424 13.7753 95.7077 16.1847 94.6872L29.2035 89.1811L29.7896 85.3437C29.9719 84.1621 29.1893 83.2162 27.9895 83.2162H6.59852ZM47.8317 83.842C47.4285 83.8754 47.0173 84.0562 46.6596 84.3426C45.7006 85.1105 45.5312 86.5446 46.2828 87.5543C47.0344 88.5641 48.296 88.7392 49.255 87.9715C50.214 87.2036 50.4252 85.7277 49.6736 84.7179C49.2965 84.2187 48.7836 83.953 48.2503 83.8836C48.117 83.8663 47.9661 83.8289 47.8317 83.8423V83.842ZM38.1199 88.3469L17.2312 97.1482C16.1451 97.6083 15.7237 98.8187 16.1847 99.9012L16.3522 100.36C16.8132 101.443 17.987 101.905 19.0731 101.445L40.0455 92.5598C40.0212 92.5291 39.9859 92.5091 39.9618 92.4771C39.0212 91.2209 38.4308 89.8015 38.1199 88.3475V88.3469Z" fill="#40BE65"/>
</svg>
