<svg width="103" height="103" viewBox="0 0 103 103" fill="none" xmlns="http://www.w3.org/2000/svg">
<path d="M83.6875 103H19.3125C17.6052 103 15.9678 102.322 14.7605 101.114C13.5532 99.9072 12.875 98.2698 12.875 96.5624V66.5208H17.1667V96.5624C17.1667 97.1315 17.3927 97.6773 17.7952 98.0798C18.1976 98.4822 18.7434 98.7083 19.3125 98.7083H83.6875C84.2566 98.7083 84.8024 98.4822 85.2048 98.0798C85.6073 97.6773 85.8333 97.1315 85.8333 96.5624V79.3958H90.125V96.5624C90.125 98.2698 89.4468 99.9072 88.2395 101.114C87.0322 102.322 85.3948 103 83.6875 103Z" fill="#FE4F20"/>
<path d="M16.5381 20.8296L13.5039 17.7954L30.6706 0.628729C31.0729 0.226279 31.6186 0.000121534 32.1877 0H83.6877C85.395 0 87.0324 0.678235 88.2397 1.8855C89.4469 3.09277 90.1252 4.73017 90.1252 6.4375V19.3125H85.8335V6.4375C85.8335 5.86839 85.6074 5.32259 85.205 4.92017C84.8026 4.51774 84.2568 4.29167 83.6877 4.29167H33.076L16.5381 20.8296Z" fill="#FE4F20"/>
<path d="M17.1667 27.8958H12.875V19.3124C12.875 18.7433 13.1011 18.1975 13.5035 17.7951C13.9059 17.3927 14.4517 17.1666 15.0208 17.1666H30.0417V2.14575H34.3333V19.3124C34.3333 19.8815 34.1073 20.4273 33.7048 20.8298C33.3024 21.2322 32.7566 21.4583 32.1875 21.4583H17.1667V27.8958Z" fill="#FE4F20"/>
<path d="M81.5417 19.3124H77.25V15.0208C77.25 14.4516 77.0239 13.9058 76.6215 13.5034C76.2191 13.101 75.6733 12.8749 75.1042 12.8749H70.8125V8.58325H75.1042C76.8115 8.58325 78.4489 9.26149 79.6562 10.4688C80.8634 11.676 81.5417 13.3134 81.5417 15.0208V19.3124Z" fill="#FE4F20"/>
<path d="M66.5207 8.58325H62.229V12.8749H66.5207V8.58325Z" fill="#FE4F20"/>
<path d="M75.104 55.7917H62.229C60.5217 55.7917 58.8843 55.1134 57.677 53.9062C56.4697 52.6989 55.7915 51.0615 55.7915 49.3542V45.0625C55.7915 43.3552 56.4697 41.7178 57.677 40.5105C58.8843 39.3032 60.5217 38.625 62.229 38.625H75.104C75.6731 38.625 76.2189 38.8511 76.6213 39.2535C77.0238 39.6559 77.2498 40.2017 77.2498 40.7708V53.6458C77.2498 54.2149 77.0238 54.7607 76.6213 55.1632C76.2189 55.5656 75.6731 55.7917 75.104 55.7917ZM62.229 42.9167C61.6599 42.9167 61.1141 43.1427 60.7117 43.5452C60.3092 43.9476 60.0832 44.4934 60.0832 45.0625V49.3542C60.0832 49.9233 60.3092 50.4691 60.7117 50.8715C61.1141 51.2739 61.6599 51.5 62.229 51.5H72.9582V42.9167H62.229Z" fill="#FE4F20"/>
<path d="M92.271 62.2291C92.0133 62.2286 91.7576 62.1829 91.5157 62.0939L74.349 55.6564C73.9401 55.5027 73.5879 55.2278 73.3394 54.8685C73.091 54.5092 72.9581 54.0826 72.9585 53.6458V40.7708C72.9581 40.3339 73.091 39.9074 73.3394 39.5481C73.5879 39.1888 73.9401 38.9139 74.349 38.7601L91.5157 32.3226C91.8405 32.2005 92.1902 32.1589 92.5346 32.2016C92.8791 32.2442 93.208 32.3698 93.4933 32.5675C93.7786 32.7652 94.0116 33.0291 94.1725 33.3367C94.3333 33.6442 94.4172 33.9862 94.4168 34.3333V60.0833C94.4168 60.6524 94.1908 61.1982 93.7883 61.6006C93.3859 62.003 92.8401 62.2291 92.271 62.2291ZM77.2502 52.1587L90.1252 56.9868V37.4297L77.2502 42.2578V52.1587Z" fill="#FE4F20"/>
<path d="M68.6667 40.7708H64.375V53.6458H68.6667V40.7708Z" fill="#FE4F20"/>
<path d="M66.521 66.5207H62.2293C61.6602 66.5207 61.1144 66.2946 60.712 65.8922C60.3096 65.4898 60.0835 64.944 60.0835 64.3749V53.6457H64.3752V62.229H65.0683L68.8192 52.8496L72.8061 54.4418L68.5145 65.171C68.3553 65.5695 68.0802 65.9111 67.7248 66.1517C67.3695 66.3923 66.9501 66.5209 66.521 66.5207Z" fill="#FE4F20"/>
<path d="M60.0835 85.8334C59.8014 85.8343 59.522 85.7789 59.2616 85.6703C58.8696 85.5078 58.5346 85.2327 58.2989 84.8798C58.0633 84.5268 57.9376 84.1119 57.9377 83.6876V75.1042H53.646C51.9387 75.1042 50.3013 74.426 49.094 73.2187C47.8867 72.0115 47.2085 70.3741 47.2085 68.6667V30.0417C47.2085 28.3344 47.8867 26.697 49.094 25.4897C50.3013 24.2825 51.9387 23.6042 53.646 23.6042H96.5627C98.27 23.6042 99.9074 24.2825 101.115 25.4897C102.322 26.697 103 28.3344 103 30.0417V68.6667C103 70.3741 102.322 72.0115 101.115 73.2187C99.9074 74.426 98.27 75.1042 96.5627 75.1042H71.701L61.6006 85.2047C61.1983 85.6071 60.6526 85.8333 60.0835 85.8334ZM53.646 27.8959C53.0769 27.8959 52.5311 28.122 52.1287 28.5244C51.7262 28.9268 51.5002 29.4726 51.5002 30.0417V68.6667C51.5002 69.2359 51.7262 69.7817 52.1287 70.1841C52.5311 70.5865 53.0769 70.8126 53.646 70.8126H60.0835C60.6526 70.8126 61.1984 71.0387 61.6008 71.4411C62.0033 71.8435 62.2293 72.3893 62.2293 72.9584V78.5075L69.2956 71.4413C69.6979 71.0389 70.2436 70.8127 70.8127 70.8126H96.5627C97.1318 70.8126 97.6776 70.5865 98.08 70.1841C98.4824 69.7817 98.7085 69.2359 98.7085 68.6667V30.0417C98.7085 29.4726 98.4824 28.9268 98.08 28.5244C97.6776 28.122 97.1318 27.8959 96.5627 27.8959H53.646Z" fill="#FE4F20"/>
<path d="M30.0417 70.8125C29.4726 70.8124 28.9269 70.5862 28.5246 70.1838L20.57 62.2292H6.4375C4.73017 62.2292 3.09277 61.5509 1.8855 60.3437C0.678235 59.1364 0 57.499 0 55.7917L0 38.625C0 36.9177 0.678235 35.2803 1.8855 34.073C3.09277 32.8657 4.73017 32.1875 6.4375 32.1875H42.9167V36.4792H6.4375C5.86839 36.4792 5.32259 36.7052 4.92017 37.1077C4.51775 37.5101 4.29167 38.0559 4.29167 38.625V55.7917C4.29167 56.3608 4.51775 56.9066 4.92017 57.309C5.32259 57.7114 5.86839 57.9375 6.4375 57.9375H21.4583C22.0274 57.9376 22.5731 58.1638 22.9754 58.5662L27.8958 63.4866V60.0833C27.8958 59.5142 28.1219 58.9684 28.5243 58.566C28.9268 58.1636 29.4726 57.9375 30.0417 57.9375H42.9167V62.2292H32.1875V68.6667C32.1876 69.091 32.0619 69.5059 31.8262 69.8588C31.5906 70.2118 31.2555 70.4869 30.8635 70.6494C30.6032 70.758 30.3237 70.8134 30.0417 70.8125Z" fill="#FE4F20"/>
<path d="M12.8752 45.0625H8.5835V49.3542H12.8752V45.0625Z" fill="#FE4F20"/>
<path d="M42.9165 45.0625H17.1665V49.3542H42.9165V45.0625Z" fill="#FE4F20"/>
<path d="M32.1877 94.4167H27.896C26.1887 94.4167 24.5513 93.7384 23.344 92.5312C22.1367 91.3239 21.4585 89.6865 21.4585 87.9792V83.6875H25.7502V87.9792C25.7502 88.5483 25.9762 89.0941 26.3787 89.4965C26.7811 89.8989 27.3269 90.125 27.896 90.125H32.1877V94.4167Z" fill="#FE4F20"/>
<path d="M40.7707 90.125H36.479V94.4167H40.7707V90.125Z" fill="#FE4F20"/>
</svg>
