<svg width="126" height="113" viewBox="0 0 126 113" fill="none" xmlns="http://www.w3.org/2000/svg">
<path d="M118.125 18.1326H73.7625L83.7375 8.14651C84.7875 7.09535 84.7875 5.5186 83.7375 4.46744C82.6875 3.41628 81.1125 3.41628 80.0625 4.46744L66.15 18.3954H65.625L48.0375 0.788372C46.9875 -0.262791 45.4125 -0.262791 44.3625 0.788372C43.3125 1.83953 43.3125 3.41628 44.3625 4.46744L58.275 18.3954H7.875C3.4125 18.3954 0 21.8116 0 26.2791V100.912C0 105.379 3.4125 108.795 7.875 108.795H16.0125V113H24.9375V108.795H100.8V113H109.725V108.795H118.125C122.588 108.795 126 105.379 126 100.912V26.0163C126 21.5488 122.588 18.1326 118.125 18.1326ZM100.537 98.0209H10.5V28.6442H100.537V98.0209ZM113.137 66.2233C109.725 66.2233 106.838 63.3326 106.838 59.9163C106.838 56.5 109.725 53.6093 113.137 53.6093C116.55 53.6093 119.438 56.5 119.438 59.9163C119.438 63.3326 116.55 66.2233 113.137 66.2233ZM113.137 45.2C109.725 45.2 106.838 42.3093 106.838 38.893C106.838 35.4767 109.725 32.586 113.137 32.586C116.55 32.586 119.438 35.4767 119.438 38.893C119.438 42.3093 116.55 45.2 113.137 45.2Z" fill="#F47B20"/>
</svg>
